<svg width="1024" height="1024" viewBox="0 0 1024 1024" fill="none" xmlns="http://www.w3.org/2000/svg">
<rect width="1024" height="1024" fill="#1ED760"/>
<path fill-rule="evenodd" clip-rule="evenodd" d="M626.584 521.196C631.164 524.238 645.995 545.564 650.127 551.362C695.402 614.144 724.524 687.105 734.923 763.807C714.049 764.155 692.518 763.919 671.593 763.95L656.158 763.983C643.874 710.366 623.189 654.536 594.26 607.504C584.197 591.143 573.469 578.609 561.943 563.635C589.666 549.881 602.649 539.962 626.584 521.196ZM407.869 575.037C430.292 584.349 462.265 585.461 486.183 584.289C472.009 632.988 451.274 679.417 429.85 725.276C424.487 736.754 418.668 748.04 412.748 759.238L405.218 759.423C378.391 759.607 351.564 759.61 324.737 759.429C332.183 744.897 340.272 730.132 347.472 715.605C370.513 670.053 390.685 623.106 407.869 575.037ZM387.624 260.43C395.108 259.388 407.436 260.42 414.767 261.626C511.762 277.576 525.499 381.545 511.685 461.233C484.03 471.838 464.012 475.142 435 466.27C435.708 462.957 436.394 459.639 437.061 456.317C442.792 427.584 446.707 377.102 430.057 352.568C423.86 343.246 414.15 336.831 403.143 334.788C380.127 330.611 364.368 341.84 360.627 364.857C356.106 392.672 365.222 423.851 381.338 446.563C396.67 468.459 420.232 483.194 446.63 487.395C484.455 493.683 516.268 482.669 546.877 461.199C600.511 423.578 624.217 376.257 634.746 313.065C636.548 300.938 637.791 279.887 637.085 267.816C640.883 267.735 645.193 267.811 649.01 268.012C670.649 269.145 693.106 268.386 714.659 269.79C716.141 341.6 693.585 418.586 647.157 473.905C608.004 520.558 548.855 560.356 487.111 566.022C437.541 570.912 388.08 555.714 349.808 523.833C315.333 494.613 293.825 452.936 289.98 407.908C285.673 359.298 295.93 305.545 339.098 277.145C354.812 266.806 369.044 262.01 387.624 260.43Z" fill="#121212"/>
</svg>
