<svg viewBox="0 0 200 227" fill="none" xmlns="http://www.w3.org/2000/svg">
<path d="M151.4 117.169C153.455 118.534 160.108 128.1 161.962 130.701C182.272 158.864 195.335 191.593 200 226C190.636 226.157 180.978 226.051 171.591 226.065L164.667 226.08C159.156 202.028 149.878 176.984 136.9 155.886C132.386 148.547 127.575 142.923 122.404 136.206C134.84 130.037 140.664 125.587 151.4 117.169ZM53.288 141.321C63.3467 145.499 77.6899 145.997 88.4189 145.472C82.0609 167.317 72.7591 188.144 63.1484 208.716C60.7428 213.865 58.1322 218.928 55.4765 223.951L52.0986 224.034C40.0649 224.117 28.0307 224.118 15.997 224.036C19.3368 217.518 22.9646 210.894 26.1943 204.378C36.5304 183.944 45.5793 162.884 53.288 141.321ZM44.207 0.192552C47.5642 -0.27478 53.0934 0.188675 56.3818 0.729662C99.8926 7.88452 106.055 54.5237 99.8583 90.2707C87.453 95.0276 78.4732 96.51 65.4589 92.5304C65.7765 91.0444 66.0837 89.5558 66.3827 88.0656C68.954 75.1761 70.7105 52.53 63.2411 41.5246C60.4613 37.3427 56.1055 34.4653 51.1679 33.549C40.8436 31.6753 33.7738 36.7129 32.0956 47.0383C30.0676 59.5152 34.1573 73.5013 41.3866 83.6896C48.2645 93.5115 58.8339 100.122 70.6757 102.007C87.6437 104.827 101.915 99.886 115.645 90.2551C139.705 73.3788 150.339 52.1517 155.062 23.8049C155.871 18.3647 156.428 8.92095 156.111 3.50603C157.815 3.46948 159.749 3.50384 161.461 3.59392C171.168 4.1025 181.242 3.76221 190.91 4.39177C191.575 36.6049 181.456 71.14 160.629 95.9552C143.065 116.883 116.532 134.736 88.8349 137.278C66.5983 139.471 44.4113 132.653 27.2431 118.352C11.7783 105.244 2.12974 86.5485 0.405197 66.3498C-1.52727 44.5439 3.07413 20.4312 22.4384 7.69158C29.4877 3.05345 35.8722 0.901398 44.207 0.192552Z" fill="#EBEBEB"/>
</svg>
